<svg xmlns="http://www.w3.org/2000/svg" xmlns:xlink="http://www.w3.org/1999/xlink" width="13" height="15" viewBox="0 0 13 15">
  <defs>
    <style>
      .cls-1 {
        fill: #fff;
        fill-rule: evenodd;
        filter: url(#filter);
      }
    </style>
    <filter id="filter" x="685" y="212" width="13" height="15" filterUnits="userSpaceOnUse">
      <feFlood result="flood" flood-color="#0091e2"/>
      <feComposite result="composite" operator="in" in2="SourceGraphic"/>
      <feBlend result="blend" in2="SourceGraphic"/>
    </filter>
  </defs>
  <path id="Rounded_Rectangle_7_copy" data-name="Rounded Rectangle 7 copy" class="cls-1" d="M695.562,222a2.385,2.385,0,0,0-1.482.519l-4.24-2.61a2.407,2.407,0,0,0,0-.818l4.24-2.61a2.385,2.385,0,0,0,1.482.519,2.5,2.5,0,1,0-2.437-2.5,2.5,2.5,0,0,0,.036.409l-4.241,2.61a2.385,2.385,0,0,0-1.482-.519,2.5,2.5,0,0,0,0,5,2.379,2.379,0,0,0,1.482-.519l4.241,2.61a2.5,2.5,0,0,0-.036.409A2.438,2.438,0,1,0,695.562,222Z" transform="translate(-685 -212)"/>
</svg>
