<?xml version="1.0" encoding="utf-8"?>
<!-- Generator: Adobe Illustrator 19.2.1, SVG Export Plug-In . SVG Version: 6.00 Build 0)  -->
<svg version="1.1" id="Слой_1" xmlns="http://www.w3.org/2000/svg" xmlns:xlink="http://www.w3.org/1999/xlink" x="0px" y="0px"
	 viewBox="0 0 17.0038242 10.0074501" style="enable-background:new 0 0 17.0038242 10.0074501;" xml:space="preserve">
<style type="text/css">
	.st0{fill-rule:evenodd;clip-rule:evenodd;fill:none;}
</style>
<g>
	<path class="st0" d="M16.7390003,5.6281252l-4.1959,4.1208c-0.3531008,0.3446999-0.9254007,0.3446999-1.2785006,0
		c-0.3528996-0.3446999-0.3528996-0.9035006,0-1.2482004l2.5424004-2.4972H1c-0.5523,0-1-0.4471998-1-0.9994998
		c0-0.5527,0.4477-1.0004001,1-1.0004001h12.8070002L11.2645998,1.506725c-0.3528996-0.3444999-0.3528996-0.9035,0-1.2481999
		c0.3530998-0.3447,0.9253998-0.3447,1.2785006,0l4.1959,4.1208C17.0921001,4.7246251,17.0921001,5.2833252,16.7390003,5.6281252z"
		/>
</g>
<g>
	<path class="st0" d="M-256.7392273,5.6281252l4.1959991,4.1208c0.3531036,0.3446999,0.9253998,0.3446999,1.2784119,0
		c0.3529968-0.3446999,0.3529968-0.9035006,0-1.2482004l-2.5423126-2.4972h12.8070068c0.5523071,0,1-0.4471998,1-0.9994998
		c0-0.5527-0.4476929-1.0004001-1-1.0004001h-12.8070068l2.5423126-2.4969001c0.3529968-0.3444999,0.3529968-0.9035,0-1.2481999
		c-0.3530121-0.3447-0.9253082-0.3447-1.2784119,0l-4.1959991,4.1208
		C-257.0922241,4.7246251-257.0922241,5.2833252-256.7392273,5.6281252z"/>
</g>
</svg>
