<svg xmlns="http://www.w3.org/2000/svg" xmlns:xlink="http://www.w3.org/1999/xlink" width="60" height="61.25" viewBox="0 0 60 61.25">
  <defs>
    <style>
      .cls-1 {
        fill-rule: evenodd;
        filter: url(#filter);
      }
    </style>
    <filter id="filter" x="1022" y="383" width="60" height="61.25" filterUnits="userSpaceOnUse">
      <feFlood result="flood" flood-color="#222"/>
      <feComposite result="composite" operator="in" in2="SourceGraphic"/>
      <feBlend result="blend" in2="SourceGraphic"/>
    </filter>
  </defs>
  <path id="Forma_1" data-name="Forma 1" class="cls-1" d="M1052,430a1,1,0,0,1,1,1v7a1,1,0,0,1-2,0v-7A1,1,0,0,1,1052,430Zm-0.05,1.05a1,1,0,0,1,0,1.414l-11.49,11.486a1,1,0,0,1-1.41-1.414l11.49-11.486A1,1,0,0,1,1051.95,431.05Zm0.1,0a1,1,0,0,0,0,1.414l11.49,11.486a1,1,0,0,0,1.41-1.414l-11.49-11.486A1,1,0,0,0,1052.05,431.05ZM1077.2,393h-8.52l-4-10h-25.36l-4,10H1034v-5h-6v5h-1.2a4.8,4.8,0,0,0-4.8,4.8v29.368a4.839,4.839,0,0,0,4.83,4.833h50.34a4.839,4.839,0,0,0,4.83-4.833V397.8A4.8,4.8,0,0,0,1077.2,393Zm-47.2-3h2v3h-2v-3Zm50,37.167a2.834,2.834,0,0,1-2.83,2.833h-50.34a2.835,2.835,0,0,1-2.83-2.833V397.8a2.805,2.805,0,0,1,2.8-2.8h9.88l4-10h22.64l4,10h9.88a2.805,2.805,0,0,1,2.8,2.8v29.368ZM1052,392a18,18,0,1,0,18,18A18.017,18.017,0,0,0,1052,392Zm0,34a16,16,0,1,1,16-16A16.02,16.02,0,0,1,1052,426Zm0-28a12,12,0,1,0,12,12A12.011,12.011,0,0,0,1052,398Zm0,22a10,10,0,1,1,10-10A10.014,10.014,0,0,1,1052,420Zm22-23a4,4,0,1,0,4,4A4,4,0,0,0,1074,397Zm0,6a2,2,0,1,1,2-2A2,2,0,0,1,1074,403Z" transform="translate(-1022 -383)"/>
</svg>
