<?xml version="1.0" encoding="utf-8"?>
<!-- Generator: Adobe Illustrator 19.2.1, SVG Export Plug-In . SVG Version: 6.00 Build 0)  -->
<svg version="1.1" id="Слой_1" xmlns="http://www.w3.org/2000/svg" xmlns:xlink="http://www.w3.org/1999/xlink" x="0px" y="0px"
	 viewBox="0 0 45 45.0000992" style="enable-background:new 0 0 45 45.0000992;" xml:space="preserve">
<style type="text/css">
	.st0{fill-rule:evenodd;clip-rule:evenodd;fill:#000;}
</style>
<g>
	<path class="st0" d="M22.5,0C34.9263,0,45,10.0738001,45,22.5000992c0,12.4263992-10.0737,22.5-22.5,22.5
		c-12.4265003,0-22.5-10.0736008-22.5-22.5C0,10.0738001,10.0734997,0,22.5,0z"/>
	<path style="fill: #fff;" class="st0" d="M22.5,2.0002c11.3218002,0,20.4999008,9.1780996,20.4999008,20.4998989
		c0,11.3218994-9.1781006,20.5-20.4999008,20.5c-11.3219004,0-20.5-9.1781006-20.5-20.5C2,11.1782999,11.1780996,2.0002,22.5,2.0002
		z"/>
	<path class="st0" d="M18.3354988,21.7861996l2.9111004,2.8887997c0.5360012,0.531601,0.5360012,1.3937016,0,1.9257011
		c-0.5359001,0.531599-1.4048004,0.531599-1.9407997,0l-2.9111004-2.8887997c-0.5358992-0.531601-0.5358992-1.3938999,0-1.9257011
		C16.9305992,21.2542992,17.7995987,21.2542992,18.3354988,21.7861996z"/>
	<path class="st0" d="M29.5837002,16.3791008c0.5358982,0.5317993,0.5358982,1.3937988,0,1.9256992l-8.337101,8.2959003
		c-0.5359001,0.531599-1.4048004,0.531599-1.9407997,0c-0.5359001-0.5319996-0.5359001-1.3941002,0-1.9257011l8.3372002-8.2958984
		C28.1788998,15.8472004,29.047699,15.8472004,29.5837002,16.3791008z"/>
</g>
</svg>
