<svg xmlns="http://www.w3.org/2000/svg" width="51" height="61" viewBox="0 0 51 61">
  <defs>
    <style>
      .cls-1 {
        fill: #222;
        fill-rule: evenodd;
      }
    </style>
  </defs>
  <path id="_01" data-name="01" class="cls-1" d="M482,368h5a1,1,0,0,1,0,2h-5A1,1,0,0,1,482,368Zm9,0h3a1,1,0,0,1,0,2h-3A1,1,0,0,1,491,368Zm-9-4h12a1,1,0,0,1,0,2H482A1,1,0,0,1,482,364Zm36,46.056A2.949,2.949,0,0,1,515.054,413H477a3.044,3.044,0,0,1-3-3V359.944A2.948,2.948,0,0,1,476.946,357h28.838c0.066,0,.13.016,0.2,0.019,0.016,0,.031-0.01.047-0.01a0.813,0.813,0,0,1,.121.026,3.912,3.912,0,0,1,2.428,1.121l8.266,8.261a3.916,3.916,0,0,1,1.156,2.79v7.745c0,0.016,0,.031,0,0.048v33.056Zm-2.488-42.311-8.266-8.261a2.108,2.108,0,0,0-.246-0.21V367a1,1,0,0,0,1.033,1.024h7.712A2.115,2.115,0,0,0,515.512,367.745ZM516,391V370h-8a3.044,3.044,0,0,1-3-3v-8H477a0.958,0.958,0,0,0-1,1v50a0.958,0.958,0,0,0,1,1h38a0.959,0.959,0,0,0,1-1V391Zm-6-6h-2a0.982,0.982,0,0,1-.907-1.018A0.95,0.95,0,0,1,508,383h2a1.011,1.011,0,0,1,.979.982A1.044,1.044,0,0,1,510,385Zm0-4H488a1.039,1.039,0,0,1-.964-1.027A0.99,0.99,0,0,1,488,379h22a1,1,0,0,1,.979.973A1.052,1.052,0,0,1,510,381Zm-26,0h-2a1.053,1.053,0,0,1-.98-1.027A1,1,0,0,1,482,379h2a0.94,0.94,0,0,1,.9.973A0.99,0.99,0,0,1,484,381Zm-2,2h22a1,1,0,0,1,.962.982A1.029,1.029,0,0,1,504,385H482a1.045,1.045,0,0,1-.98-1.018A1.012,1.012,0,0,1,482,383Zm0,4h11a0.978,0.978,0,0,1,.931.991A0.994,0.994,0,0,1,493,389H482a1.036,1.036,0,0,1-.98-1.009A1.02,1.02,0,0,1,482,387Zm0,4h2a1,1,0,0,1,0,2h-2A1,1,0,0,1,482,391Zm0,4h18a1.01,1.01,0,0,1,.951,1.008A1,1,0,0,1,500,397H482a1.021,1.021,0,0,1-.98-0.992A1.035,1.035,0,0,1,482,395Zm0,4h28a1.023,1.023,0,0,1,.956,1.017A0.991,0.991,0,0,1,510,401H482a1.013,1.013,0,0,1-.98-0.983A1.044,1.044,0,0,1,482,399Zm0,4h7a1,1,0,0,1,.919,1.026A0.952,0.952,0,0,1,489,405h-7a1,1,0,0,1-.98-0.974A1.052,1.052,0,0,1,482,403Zm11,0h17a1.029,1.029,0,0,1,.954,1.026A0.982,0.982,0,0,1,510,405H493a0.978,0.978,0,0,1-.949-0.974A1.025,1.025,0,0,1,493,403Zm10.082-6.992A0.982,0.982,0,0,1,504,395h6a1.024,1.024,0,0,1,.967,1.008A1.009,1.009,0,0,1,510,397h-6A0.968,0.968,0,0,1,503.082,396.008ZM510,389H497a1,1,0,0,1-.938-1.009A0.983,0.983,0,0,1,497,387h13a1.019,1.019,0,0,1,.979.991A1.035,1.035,0,0,1,510,389Zm0,4H488a1,1,0,0,1,0-2h22A1,1,0,0,1,510,393Zm-35,13h-5a0.958,0.958,0,0,1-1-1V355a0.958,0.958,0,0,1,1-1h34a0.959,0.959,0,0,1,1,1v4h2v-4.056A2.949,2.949,0,0,0,504.054,352H470a3.044,3.044,0,0,0-3,3v50.056A2.948,2.948,0,0,0,469.946,408H475v-2Z" transform="translate(-467 -352)"/>
</svg>
