<svg xmlns="http://www.w3.org/2000/svg" width="8" height="11.97" viewBox="0 0 8 11.97">
  <defs>
    <style>
      .cls-1 {
        fill: #c5c5c5;
        fill-rule: evenodd;
      }
    </style>
  </defs>
  <path id="Rounded_Rectangle_3_copy_4" data-name="Rounded Rectangle 3 copy 4" class="cls-1" d="M1516.02,3856.99l-3.69,3.55a0.973,0.973,0,0,0,0,1.42l0.74,0.72a1.082,1.082,0,0,0,1.48,0l4.43-4.26v-0.01l0.75-.71a1,1,0,0,0,0-1.43l-0.75-.71a0.01,0.01,0,0,0-.01-0.01l-4.42-4.26a1.082,1.082,0,0,0-1.48,0l-0.74.72a0.973,0.973,0,0,0,0,1.42Z" transform="translate(-1512.03 -3851)"/>
</svg>
