<svg xmlns="http://www.w3.org/2000/svg" xmlns:xlink="http://www.w3.org/1999/xlink" width="16" height="19" viewBox="0 0 16 19">
  <defs>
    <style>
      .cls-1 {
        fill: #0091e2;
        fill-rule: evenodd;
        filter: url(#filter);
      }
    </style>
    <filter id="filter" x="410" y="547" width="16" height="19" filterUnits="userSpaceOnUse">
      <feFlood result="flood" flood-color="#fff"/>
      <feComposite result="composite" operator="in" in2="SourceGraphic"/>
      <feBlend result="blend" in2="SourceGraphic"/>
    </filter>
  </defs>
  <path id="Rectangle_92_copy_4" data-name="Rectangle 92 copy 4" class="cls-1" d="M424,566H410V549h2v-2h2v2h8v-2h2v2h2v17h-2Zm0-15H412v2h12v-2Zm0,4H412v9h12v-9Zm-8,4h-2v-2h2v2Zm0,3h-2v-2h2v2Zm3-3h-2v-2h2v2Zm0,3h-2v-2h2v2Zm3-3h-2v-2h2v2Zm0,3h-2v-2h2v2Z" transform="translate(-410 -547)"/>
</svg>
