<svg xmlns="http://www.w3.org/2000/svg" xmlns:xlink="http://www.w3.org/1999/xlink" width="51" height="42" viewBox="0 0 51 42">
  <defs>
    <style>
      .cls-1 {
        fill-rule: evenodd;
        filter: url(#filter);
      }
    </style>
    <filter id="filter" x="789" y="909" width="51" height="42" filterUnits="userSpaceOnUse">
      <feFlood result="flood" flood-color="#0089d2"/>
      <feComposite result="composite" operator="in" in2="SourceGraphic"/>
      <feBlend result="blend" in2="SourceGraphic"/>
    </filter>
  </defs>
  <path class="cls-1" d="M832,951H797a8,8,0,0,1-8-8V922a8,8,0,0,1,8-8h4.349A9.987,9.987,0,0,1,810,909h9a9.988,9.988,0,0,1,8.651,5H832a8,8,0,0,1,8,8v21A8,8,0,0,1,832,951Zm-17.5-33A13.5,13.5,0,1,0,828,931.5,13.5,13.5,0,0,0,814.5,918Zm18,1a2.5,2.5,0,1,0,2.5,2.5A2.5,2.5,0,0,0,832.5,919Zm-18,24A11.5,11.5,0,1,1,826,931.5,11.5,11.5,0,0,1,814.5,943Z" transform="translate(-789 -909)"/>
</svg>
