<svg xmlns="http://www.w3.org/2000/svg" width="8" height="11.97" viewBox="0 0 8 11.97">
  <defs>
    <style>
      .cls-1 {
        fill: #c5c5c5;
        fill-rule: evenodd;
      }
    </style>
  </defs>
  <path id="Rounded_Rectangle_3_copy_3" data-name="Rounded Rectangle 3 copy 3" class="cls-1" d="M402.983,3849.99l3.691,3.55a0.975,0.975,0,0,1,0,1.42l-0.74.72a1.085,1.085,0,0,1-1.482,0l-4.429-4.26s-0.006,0-.008-0.01l-0.741-.71a0.987,0.987,0,0,1,0-1.43l0.741-.71s0.007-.01.01-0.01l4.427-4.26a1.085,1.085,0,0,1,1.482,0l0.74,0.72a0.975,0.975,0,0,1,0,1.42Z" transform="translate(-399 -3844)"/>
</svg>
