
<svg version="1.1" id="Слой_1" xmlns="http://www.w3.org/2000/svg" xmlns:xlink="http://www.w3.org/1999/xlink" x="0px" y="0px"
	 viewBox="0 0 49.999897 49.9996986" style="enable-background:new 0 0 49.999897 49.9996986;" xml:space="preserve">
<style type="text/css">
	.st0{fill:none;}
</style>
<g>
	<path class="st0" d="M25,0c-0.5619011,0-1.0174999,0.4554-1.0174999,1.0174999c0,0.5618,0.4555988,1.0173001,1.0174999,1.0173001
		c12.6627007,0,22.9648972,10.3022003,22.9648972,22.9650002c0,12.6629009-10.3021965,22.9650974-22.9648972,22.9650974
		c-12.6629,0-22.9650002-10.301899-22.9650002-22.9650974c0-8.6154995,4.7554998-16.4328003,12.4104996-20.4015999
		c0.4989004-0.2585998,0.6936007-0.8725998,0.4350004-1.3715C14.6218996,2.7279,14.0077,2.5330999,13.5089998,2.7918
		C5.1763,7.1115999,0,15.6212997,0,24.9997997c0,13.7852001,11.2150002,24.9998989,25,24.9998989
		c13.7847977,0,24.999897-11.214901,24.999897-24.9998989S38.785099,0,25,0z"/>
	<path class="st0" d="M34.800499,12.1209993C31.9639988,9.9591999,28.5750999,8.8168001,25,8.8168001
		c-8.9234009,0-16.1832008,7.259799-16.1832008,16.1832008c0,8.9235992,7.259799,16.1832008,16.1832008,16.1832008
		c4.3225994,0,8.3864975-1.6833,11.4431-4.7401009c0.3973999-0.3972015,0.3973999-1.0413017,0-1.4389
		c-0.3973007-0.3972015-1.0417023-0.3972015-1.4389,0C32.3320007,37.6765976,28.7791996,39.1481972,25,39.1481972
		C17.1985989,39.1481972,10.8518,32.8013,10.8518,25c0-7.8014011,6.3466997-14.1483002,14.1482-14.1483002
		c6.2564983,0,11.843998,4.1912994,13.5878983,10.1926003c0.1567001,0.5396996,0.721199,0.8498993,1.2610016,0.6933002
		c0.5396004-0.1570015,0.8499985-0.7215004,0.6931-1.2612C39.584198,17.1798992,37.5450974,14.2123995,34.800499,12.1209993z"/>
	<path class="st0" d="M36.9302979,21.9202003c-0.3973999-0.3971004-1.0415993-0.3971004-1.438797,0
		c-0.3973999,0.3975983-0.3973999,1.0415993,0,1.4390984l3.8273964,3.8276005
		c0.1908035,0.1909008,0.4496002,0.2978992,0.7195015,0.2978992c0.2700996,0,0.5287018-0.1069984,0.7195015-0.2978992
		l3.8275986-3.8276005c0.3973007-0.3974991,0.3973007-1.0415001,0-1.4390984c-0.3975983-0.3971004-1.0418015-0.3971004-1.4389992,0
		l-3.1081009,3.1082993L36.9302979,21.9202003z"/>
</g>
</svg>
