<?xml version="1.0" encoding="utf-8"?>
<!-- Generator: Adobe Illustrator 19.2.1, SVG Export Plug-In . SVG Version: 6.00 Build 0)  -->
<svg version="1.1" id="Слой_1" xmlns="http://www.w3.org/2000/svg" xmlns:xlink="http://www.w3.org/1999/xlink" x="0px" y="0px"
	 viewBox="0 0 17.003849 10.0074501" style="enable-background:new 0 0 17.003849 10.0074501;" xml:space="preserve">
<style type="text/css">
	.st0{fill-rule:evenodd;clip-rule:evenodd;fill:none;}
</style>
<path class="st0" d="M273.742981,5.6281252l-4.1959229,4.1208c-0.3530884,0.3446999-0.9253845,0.3446999-1.2784729,0
	c-0.3529053-0.3446999-0.3529053-0.9035006,0-1.2482004l2.5423889-2.4972h-12.8070068c-0.5523071,0-1-0.4471998-1-0.9994998
	c0-0.5527,0.4476929-1.0004001,1-1.0004001h12.8070068l-2.5423889-2.4969001c-0.3529053-0.3444999-0.3529053-0.9035,0-1.2481999
	c0.3530884-0.3447,0.9253845-0.3447,1.2784729,0l4.1959229,4.1208
	C274.0960693,4.7246251,274.0960693,5.2833252,273.742981,5.6281252z"/>
<g>
	<path class="st0" d="M0.26475,5.6281252l4.1960001,4.1208c0.3530998,0.3446999,0.9253998,0.3446999,1.2783999,0
		c0.3529997-0.3446999,0.3529997-0.9035006,0-1.2482004l-2.5423002-2.4972H16.003849c0.5523014,0,1-0.4471998,1-0.9994998
		c0-0.5527-0.4476986-1.0004001-1-1.0004001H3.1968498L5.73915,1.506725c0.3529997-0.3444999,0.3529997-0.9035,0-1.2481999
		c-0.3530002-0.3447-0.9253001-0.3447-1.2783999,0l-4.1960001,4.1208C-0.08825,4.7246251-0.08825,5.2833252,0.26475,5.6281252z"/>
</g>
</svg>
