<svg xmlns="http://www.w3.org/2000/svg" width="59" height="61" viewBox="0 0 59 61">
  <defs>
    <style>
      .cls-1 {
        fill: #222;
        fill-rule: evenodd;
      }
    </style>
  </defs>
  <path id="_06" data-name="06" class="cls-1" d="M1464,429h-49a5,5,0,0,1-5-5V382a5,5,0,0,1,4.9-4.989V377h3.1v-6a3.038,3.038,0,0,1,3-3h37a3.038,3.038,0,0,1,3,3v6h3.1v0.01A5,5,0,0,1,1469,382v42A5,5,0,0,1,1464,429Zm-5-58a1.027,1.027,0,0,0-1-1h-37a1.027,1.027,0,0,0-1,1v0.191a2.912,2.912,0,0,1,1-.191h37a2.912,2.912,0,0,1,1,.191V371Zm0,3a1.028,1.028,0,0,0-1-1h-37a1.028,1.028,0,0,0-1,1v0.192a2.889,2.889,0,0,1,1-.192h37a2.889,2.889,0,0,1,1,.192V374Zm8,8a3.006,3.006,0,0,0-3-3h-3v27a1,1,0,0,1-2,0V377a1.028,1.028,0,0,0-1-1h-37a1.028,1.028,0,0,0-1,1v29a1,1,0,0,1-2,0V379h-3a3.006,3.006,0,0,0-3,3v42a3.006,3.006,0,0,0,3,3h49a3.006,3.006,0,0,0,3-3V382Zm-5,29h-11v4a3.038,3.038,0,0,1-3,3h-17a3.038,3.038,0,0,1-3-3v-4h-11a3.006,3.006,0,0,1-3-3V384a1,1,0,1,1,2,0v24a1,1,0,0,0,1,1h12a1,1,0,0,1,1,1v5a1.028,1.028,0,0,0,1,1h17a1.028,1.028,0,0,0,1-1v-5a1,1,0,0,1,1-1h12a1,1,0,0,0,1-1V384a1,1,0,1,1,2,0v24A3.006,3.006,0,0,1,1462,411Zm-9-5h-10a1,1,0,0,1,0-2h10A1,1,0,0,1,1453,406Zm0-4h-16a1,1,0,0,1,0-2h16A1,1,0,0,1,1453,402Zm0-4h-11a1,1,0,0,1,0-2h11A1,1,0,0,1,1453,398Zm0-4h-7a1,1,0,0,1,0-2h7A1,1,0,0,1,1453,394Zm0-4h-16a1,1,0,0,1,0-2h16A1,1,0,0,1,1453,390Zm0-4h-9a1,1,0,0,1,0-2h9A1,1,0,0,1,1453,386Zm0-4h-7a1,1,0,0,1,0-2h7A1,1,0,0,1,1453,382Zm-11,0h-4a1,1,0,0,1,0-2h4A1,1,0,0,1,1442,382Zm-17,2h15a1,1,0,0,1,0,2h-15A1,1,0,0,1,1425,384Zm0,4h7a1,1,0,0,1,0,2h-7A1,1,0,0,1,1425,388Zm0,4h6a1,1,0,0,1,0,2h-6A1,1,0,0,1,1425,392Zm10,1a1,1,0,0,1,1-1h5a1,1,0,0,1,0,2h-5A1,1,0,0,1,1435,393Zm-10,3h13a1,1,0,0,1,0,2h-13A1,1,0,0,1,1425,396Zm0,4h7a1,1,0,0,1,0,2h-7A1,1,0,0,1,1425,400Zm-1,5h0a1,1,0,0,1,1-1h14a1,1,0,0,1,1,1h0a1,1,0,0,1-1,1h-14A1,1,0,0,1,1424,405Zm9,3h4a1,1,0,0,1,0,2h-4A1,1,0,0,1,1433,408Zm13,2h-5a1,1,0,0,1,0-2h5A1,1,0,0,1,1446,410Zm0,4h-13a1,1,0,0,1-1-1h0a1,1,0,0,1,1-1h13a1,1,0,0,1,1,1h0A1,1,0,0,1,1446,414Zm-12-32h-9a1,1,0,0,1,0-2h9A1,1,0,0,1,1434,382Zm-16,36h4a1,1,0,0,1,0,2h-4A1,1,0,0,1,1418,418Zm0,3h7a1,1,0,0,1,0,2h-7A1,1,0,0,1,1418,421Z" transform="translate(-1410 -368)"/>
</svg>
