<?xml version="1.0" encoding="utf-8"?>
<!-- Generator: Adobe Illustrator 19.2.1, SVG Export Plug-In . SVG Version: 6.00 Build 0)  -->
<svg version="1.1" id="Слой_1" xmlns="http://www.w3.org/2000/svg" xmlns:xlink="http://www.w3.org/1999/xlink" x="0px" y="0px"
	 viewBox="0 0 17.9998989 16.0000992" style="enable-background:new 0 0 17.9998989 16.0000992;" xml:space="preserve">
<style type="text/css">
	.st0{fill-rule:evenodd;clip-rule:evenodd;}
</style>
<g>
	<path class="st0" d="M15,16.0000992H2.9998999C1.3429999,16.0000992,0,14.6568995,0,13V6
		c0-1.6568003,1.3429999-2.9999001,2.9998999-2.9999001h1C3.9998999,1.3432,5.3431001,0,7,0h3.9998999
		C12.6567993,0,14,1.3432,14,3.0000999h1c1.6567993,0,2.9998989,1.3430998,2.9998989,2.9999001v7
		C17.9998989,14.6568995,16.6567993,16.0000992,15,16.0000992z"/>
	<path class="st0" d="M15,7.0000997c-0.5523005,0-1-0.4477-1-1.0000997c0-0.5523,0.4476995-1,1-1
		c0.5522995,0,0.9998999,0.4477,0.9998999,1C15.9998999,6.5523996,15.5522995,7.0000997,15,7.0000997z M8.9998999,14
		c-2.7614002,0-5-2.2386007-5-5s2.2385998-4.9998999,5-4.9998999C11.7613993,4.0001001,14,6.2385998,14,9
		S11.7613993,14,8.9998999,14z M8.9998999,6C7.3430996,6,6,7.3431997,6,9c0,1.6568995,1.3430996,3.0001001,2.9998999,3.0001001
		c1.6568995,0,3-1.3432007,3-3.0001001C11.9998999,7.3431997,10.6567993,6,8.9998999,6z" style="fill: #fff;"/>
</g>
</svg>
