<svg xmlns="http://www.w3.org/2000/svg" width="64.625" height="56.781" viewBox="0 0 64.625 56.781">
  <defs>
    <style>
      .cls-1 {
        fill-rule: evenodd;
      }
    </style>
  </defs>
  <path id="_02" data-name="02" class="cls-1" d="M690.579,393.3a10.57,10.57,0,0,0-14.882-14.88l-0.248-.248a1,1,0,1,0-1.408,1.409l0.247,0.248a10.511,10.511,0,0,0-2.4,6.061c-10.535,11.073-17.224,18.746-21.037,24.131-2.49,3.516-5.049,7.762-3.694,10.408l-4.867,4.866a1,1,0,1,0,1.409,1.409l4.867-4.866a3.668,3.668,0,0,0,1.7.383h0c2.414,0,6.034-1.929,11.393-6.069,4.564-3.527,10.63-8.854,18.473-16.226l0,0h0q1.446-1.359,2.973-2.811a10.517,10.517,0,0,0,6.062-2.4l0.248,0.248a1,1,0,0,0,1.409-1.408Zm-11.126,4.531-2.913-2.911a1,1,0,1,0-1.409,1.408L678,399.2c-11.171,10.48-23.252,21.032-27.735,21.032a1.426,1.426,0,0,1-1.106-.395c-0.753-.752-0.788-2.866,3.316-8.662,3.7-5.229,10.2-12.69,20.406-23.438l8.383,8.382Q680.367,396.974,679.453,397.835Zm3.63-2.715-9.2-9.2a8.532,8.532,0,0,1,1.825-4.669L687.753,393.3A8.529,8.529,0,0,1,683.083,395.12Zm6.079-3.233-12.047-12.045A8.576,8.576,0,0,1,689.162,391.887ZM674.516,392.9l-0.017-.017a1,1,0,0,0-1.408,1.409l0.016,0.017A1,1,0,1,0,674.516,392.9Zm-38.083,14.832,16.971-16.97a1,1,0,0,1,1.414,1.414l-16.971,16.97A1,1,0,0,1,636.433,407.732Zm-7.778-.707,6.364-6.364a1,1,0,0,1,1.414,1.414l-6.364,6.364A1,1,0,0,1,628.655,407.025Zm28.284,24.042,14.85-14.85a1,1,0,1,1,1.414,1.415l-14.849,14.849A1,1,0,0,1,656.939,431.067Zm23.335-14.85,5.657-5.656a1,1,0,0,1,1.414,1.414l-5.657,5.657A1,1,0,0,1,680.274,416.217Z" transform="translate(-628.375 -376)"/>
</svg>
