<svg xmlns="http://www.w3.org/2000/svg" width="27" height="10" viewBox="0 0 27 10">
  <defs>
    <style>
      .cls-1 {
        fill: #0091e2;
        fill-rule: evenodd;
      }
    </style>
  </defs>
  <path id="Rounded_Rectangle_2" data-name="Rounded Rectangle 2" class="cls-1" d="M817.117,1478.63l3.508-3.71a1.358,1.358,0,0,0,0-1.85,1.2,1.2,0,0,0-1.754,0l-3.508,3.7a1.373,1.373,0,0,0,0,1.86A1.2,1.2,0,0,0,817.117,1478.63Zm3.508-3.71a1.358,1.358,0,0,0,0-1.85l-3.508-3.71a1.2,1.2,0,0,0-1.754,0,1.373,1.373,0,0,0,0,1.86l3.508,3.7A1.2,1.2,0,0,0,820.625,1474.92ZM795,1473h24a1,1,0,0,1,0,2H795A1,1,0,0,1,795,1473Z" transform="translate(-794 -1469)"/>
</svg>
