<svg xmlns="http://www.w3.org/2000/svg" xmlns:xlink="http://www.w3.org/1999/xlink" width="56" height="61" viewBox="0 0 56 61">
  <defs>
    <style>
      .cls-1 {
        fill: #222;
        fill-rule: evenodd;
        filter: url(#filter);
      }
    </style>
    <filter id="filter" x="838" y="377" width="56" height="61" filterUnits="userSpaceOnUse">
      <feFlood result="flood" flood-color="#fff"/>
      <feComposite result="composite" operator="in" in2="SourceGraphic"/>
      <feBlend result="blend" in2="SourceGraphic"/>
    </filter>
  </defs>
  <path id="_03" data-name="03" class="cls-1" d="M891,438H877a2.957,2.957,0,0,0-4,0H859a2.957,2.957,0,0,0-4,0H841a3,3,0,0,1-3-3V380a3,3,0,0,1,3-3h14a2.96,2.96,0,0,0,4,0h14a2.96,2.96,0,0,0,4,0h14a3,3,0,0,1,3,3v55A3,3,0,0,1,891,438Zm-35-57.5a1.5,1.5,0,0,0-1.5-1.5h-13a1.5,1.5,0,0,0-1.5,1.5v54a1.5,1.5,0,0,0,1.5,1.5h13a1.5,1.5,0,0,0,1.5-1.5v-54Zm16.5-1.5h-13a1.5,1.5,0,0,0-1.5,1.5v54a1.5,1.5,0,0,0,1.5,1.5h13a1.5,1.5,0,0,0,1.5-1.5v-54A1.5,1.5,0,0,0,872.5,379ZM892,434V380.5a1.5,1.5,0,0,0-1.5-1.5h-13a1.5,1.5,0,0,0-1.5,1.5v54a1.5,1.5,0,0,0,1.5,1.5h13a1.5,1.5,0,0,0,1.5-1.5V434Zm-8-2a5,5,0,1,1,5-5A4.952,4.952,0,0,1,884,432Zm0-8a3,3,0,1,0,3,3A2.946,2.946,0,0,0,884,424Zm4-24h-8a0.945,0.945,0,0,1-1-1V383a0.945,0.945,0,0,1,1-1h8a0.945,0.945,0,0,1,1,1v16A0.945,0.945,0,0,1,888,400Zm-1-16h-6v2h6v-2Zm0,4h-6v2h6v-2Zm0,4h-6v2h6v-2Zm0,4h-6v2h6v-2Zm-21,36a5,5,0,1,1,5-5A4.952,4.952,0,0,1,866,432Zm0-8a3,3,0,1,0,3,3A2.946,2.946,0,0,0,866,424Zm4-24h-8a0.946,0.946,0,0,1-1-1V383a0.946,0.946,0,0,1,1-1h8a0.945,0.945,0,0,1,1,1v16A0.945,0.945,0,0,1,870,400Zm-1-16h-6v2h6v-2Zm0,4h-6v2h6v-2Zm0,4h-6v2h6v-2Zm0,4h-6v2h6v-2Zm-21,36a5,5,0,1,1,5-5A4.952,4.952,0,0,1,848,432Zm0-8a3,3,0,1,0,3,3A2.946,2.946,0,0,0,848,424Zm4-24h-8a0.946,0.946,0,0,1-1-1V383a0.946,0.946,0,0,1,1-1h8a0.945,0.945,0,0,1,1,1v16A0.945,0.945,0,0,1,852,400Zm-1-16h-6v2h6v-2Zm0,4h-6v2h6v-2Zm0,4h-6v2h6v-2Zm0,4h-6v2h6v-2Z" transform="translate(-838 -377)"/>
</svg>
