<svg xmlns="http://www.w3.org/2000/svg" xmlns:xlink="http://www.w3.org/1999/xlink" width="53" height="54" viewBox="0 0 53 54">
  <defs>
    <style>
      .cls-1 {
        fill: #0080c9;
        fill-rule: evenodd;
        filter: url(#filter);
      }
    </style>
    <filter id="filter" x="1048" y="638" width="53" height="54" filterUnits="userSpaceOnUse">
      <feFlood result="flood" flood-color="#fff"/>
      <feComposite result="composite" operator="in" in2="SourceGraphic"/>
      <feBlend result="blend" in2="SourceGraphic"/>
    </filter>
  </defs>
  <path class="cls-1" d="M1066,662h14a1,1,0,0,1,0,2h-14A1,1,0,0,1,1066,662Zm7-7a1,1,0,0,1,1,1v14a1,1,0,0,1-2,0V656A1,1,0,0,1,1073,655Zm26.46,35.461a5.19,5.19,0,0,1-7.34,0l-6.07-6.075a24.992,24.992,0,1,1,7.56-7.121l5.85,5.855A5.186,5.186,0,0,1,1099.46,690.461Zm-3.37-27.425a23.065,23.065,0,1,0-23.06,23.073A23.063,23.063,0,0,0,1096.09,663.036Z" transform="translate(-1048 -638)"/>
</svg>
