<svg xmlns="http://www.w3.org/2000/svg" xmlns:xlink="http://www.w3.org/1999/xlink" width="18" height="24" viewBox="0 0 18 24">
  <defs>
    <style>
      .cls-1 {
        fill-rule: evenodd;
        filter: url(#filter);
      }
    </style>
    <filter id="filter" x="1363" y="39" width="18" height="24" filterUnits="userSpaceOnUse">
      <feFlood result="flood" flood-color="#0091e2"/>
      <feComposite result="composite" operator="in" in2="SourceGraphic"/>
      <feBlend result="blend" in2="SourceGraphic"/>
    </filter>
  </defs>
  <path class="cls-1" d="M1378,63h-12a3,3,0,0,1-3-3V49a3,3,0,0,1,3-3h12a3,3,0,0,1,3,3V60A3,3,0,0,1,1378,63Zm1-13a2,2,0,0,0-2-2h-10a2,2,0,0,0-2,2v9a2,2,0,0,0,2,2h10a2,2,0,0,0,2-2V50Zm-6.04,6.827A0.523,0.523,0,0,1,1373,57h0a1,1,0,0,1-2,0h0a0.99,0.99,0,0,1,.03-0.173A3.005,3.005,0,1,1,1372.96,56.827ZM1372,53a1,1,0,1,0,1,1A1,1,0,0,0,1372,53Zm4-6V45a4,4,0,1,0-8,0v2h-2V45a6,6,0,0,1,12,0v2h-2Z" transform="translate(-1363 -39)"/>
</svg>
