<?xml version="1.0" encoding="utf-8"?>
<!-- Generator: Adobe Illustrator 19.2.1, SVG Export Plug-In . SVG Version: 6.00 Build 0)  -->
<svg version="1.1" id="Слой_1" xmlns="http://www.w3.org/2000/svg" xmlns:xlink="http://www.w3.org/1999/xlink" x="0px" y="0px"
	 viewBox="0 0 61 60.999897" style="enable-background:new 0 0 61 60.999897;" xml:space="preserve">
<style type="text/css">
	.st0{fill-rule:evenodd;clip-rule:evenodd;fill:#222;}
</style>
<g>
	<path class="st0" d="M56.5,48.999897H39.2998009H38v6h7c0.5522995,0,1,0.4477005,1,1C46,56.5522995,45.5522995,57,45,57H16
		c-0.5523005,0-1-0.4477005-1-1.000103c0-0.5522995,0.4476995-1,1-1h6v-6H4.5c-2.4999001,0-4.5-2.0000992-4.5-4.5v-4.4999962v-35.5
		C0,2,2.0000999,0,4.5,0h52C59,0,61,1.9999,61,4.4998999v35.5v4.4999962C61,46.9997978,59,48.999897,56.5,48.999897z M24,54.999897
		h12v-6h-9.2999992H24V54.999897z M59,4.4998999C59,3.0999999,57.9001007,2,56.5,2h-52
		C3.1001,2,2.0000999,3.0999,2.0000999,4.4998999v34.5H59V4.4998999z M59.0000992,40.9997978h-57v3.5
		c0,1.3999023,1.0999,2.4999008,2.4999001,2.4999008h23.5000992h10H56.5c1.3998985,0,2.5-1.0998001,2.5-2.4999008h0.0000992
		V40.9997978z M9,58.999897h42c0.5522995,0,1,0.4477997,1,1c0,0.5523033-0.4477005,1-1,1H9c-0.5523005,0-1-0.4476967-1-1
		C8,59.4476967,8.4476995,58.999897,9,58.999897z"/>
	<path style="fill: none; stroke: currentColor; stroke-width: 2;" class="st0" d="M30.5000992,9C37.4035988,9,43,14.5963993,43,21.5C43,28.4034996,37.4035988,34,30.5000992,34
		c-6.9036999,0-12.5-5.5965004-12.5-12.5C18.0000992,14.5963993,23.5963993,9,30.5000992,9z"/>

	<path class="st0" d="M35.6734009,22.2046986l-6.8389015,4.4855003c-0.4195995,0.3980007-1.0999985,0.3980007-1.5198002,0
		c-0.3446999-0.3269997-0.3900986-0.8139992-0.1683998-1.2005997C27.0615997,25.3428001,27,25.1815987,27,25v-7
		c0-0.1888008,0.0664005-0.3553009,0.1573009-0.5059013c-0.2330017-0.3887997-0.1922016-0.8846989,0.1573982-1.2161999
		c0.4198017-0.3979988,1.1002007-0.3979988,1.5198002,0l6.8389015,4.4855003
		C36.0929985,21.1613998,36.0929985,21.8066998,35.6734009,22.2046986z M29,19.3172989v4.3334999l4.3937988-2.1666985L29,19.3172989
		z"/>
</g>
</svg>
