
<svg version="1.1" id="Слой_1" xmlns:amcharts="http://amcharts.com/ammap"
	 xmlns="http://www.w3.org/2000/svg" xmlns:xlink="http://www.w3.org/1999/xlink" x="0px" y="0px" viewBox="0 0 612.7 304"
	 style="enable-background:new 0 0 612.7 304;" xml:space="preserve">
<style type="text/css">
	.st0{fill:#CCCCCC;stroke:#FFFFFF;stroke-width:0.5;}
</style>
<defs>
	
	
</defs>
<g>
	<path id="SK-BC" class="st0" d="M212.7,142.3l0.4-0.9l1.6-0.8l1.3-1.8l2-1l0.8,0.2l0.1,1.5l0.7,0.1l-0.1,1.3l1.8,0.3l1.1,1.1l1,0.1
		l1.4-1.1l2.4,0.6l2.8-0.4l0.9-1.6l1.6-1.3l0.5-3.6l-2.4-2.1l-0.5-1l-0.1-1.4l0.9-1.6l-0.8-3.7l0.5-0.5l0.7,0.4l1.1-0.1l1.4-1.7
		l0.8-2.9l1.9-0.8l0.6,0l0.9,0.9l1.3,0.1l0.7-0.3l2.1,0.4l4.9-0.8l1.1,0.4l1.3-0.7l1.4,0.5l2-1.9l3.7-1l2,0.9l0.6,1.6l0.1,2.2
		l-1.6,1.4l0.2,0.6l6.9-1.1l2.1-4.5l5.1-5.8h6.7l1.6-0.4l3.6-1.9l3.1,0.4l1.5-1l1.4,0.8l1.6,0.1l2.2,0.8l0.8,1l2.8,2l1.5,0.5
		l3.1,2.5h3l4.8-1.8l1.5,1.8l1.8-1.1l1.2,0l2.3-1.5l2.4,0.1l0.6,0.8l1.1,0.4l4.8-0.7l8.1,0.4l2.5-1.4l1.9,2l0,0l5.3,0.5l1.2,1.5
		l8.9,1.3l1.9-1.3l1.5-2.6l2.2,2.1l1.5-0.2l1.3,0.4l2.8,3.1l1.5,0.5l0,0l-1.4,0.6l-1.1,3.9l-4.4,4.1l0.2,3.7l-0.9,0.9l0.8,0.7
		l0.6,2.6l-2.5,1.6l-0.1,1l0.3,2.1l0.8,0.3l-0.3,2l0.5,1.2l2.1-0.3l4.4,3.8l1.1,2.3l1.3,1.2l1.5,3.4l1.3,1.1l-1,1.9l0.4,3.4l0.5,1
		l0,0l-0.6,0.6l0,0.8l0,0l2,1l2.3-0.5l0.7,1.5l1.4,0.2l-0.6,3.2l-2.3,4.5l0,1.8l-0.9,1.6l-1.4,1.2l-0.5,2.9l0.9,1.4l-0.2,1.9
		l0.5,0.8l0.3-0.5l0.8,0.5l0.6-0.2l0,1.1l0.5,0.5l-0.3,0.6l3.6-0.1l2.2-0.7l1-0.7l1.5-2.4l1.2-0.4l0.7,2.1l1.6,0l1.7-0.9l0.9,0.8
		l0,0.7l0,0l0.6,1.4l-0.9,1l-1.4,0.4l-0.8,1.9l-2.6,2.5l-0.3,1.4l0.5,1.1l-0.1,1.6l-1.5,2.1l0.8,1.9l-0.1,0.6l-2.3,2.2l-0.5,1.2
		l-1.7,2l0.6,0.9l-0.9,1.4l-3,2.9l-0.4,0.8l0.2,1.1l-0.3-0.3l-0.4,0.3l-0.3,2.4l-2-0.1l0.5,1.3l-2.8,0.5l-2.7-2.1l-2.1-0.9l-1.5,0.5
		l0.9,0.9l-0.8,1.5l-1.2,0.4l-1.5-0.2l0.5,1.5l-3.2,0.4l-0.7-0.5l-1.6,0.1l-1-0.7l-1.1,0.3l-0.2,0.7l0.7,0.9l-0.7,2.9l-3.3,2.5
		l-1.6,2.1l-1-0.2l-0.9,0.9l-0.2,0.5l1.1,0.5l0,0.3l-1.9,0.9l-0.8,1.3l-0.5,0.2l-0.7-1l-1.1-0.4l-2.9,0.8l-1.2,0.6l-0.4,0.8
		l-1.4-0.4l-1.2,1.9l-1.4,0.2l-1.5,3l-3,0.6l-0.9,0.6l0.3-1.8l1.2-1.7l-1.5-2.9l-1.2,0.2l-0.9-0.8l-2-0.1l-0.5-1.3l-1.3,2.5h-0.9
		l-1.4-1.2l-1.5,1.3l-0.1,1l-1.3,0.2l-1.2-1.7l0.6-0.5l0.2-1l1.6-1.5l-0.7-1.7l-1.1,0.3l-0.8-1.4l-1.7-0.9l-0.5-1l-1.5-0.4l-1.1,0.1
		l-1.2,2l-1.9,0.3l-1.2-0.5l-1.6-1.5l-1.1-4.2l-1.1-0.3l-1.3,0.5l-1.8-1.8l-2.5,1.9l-0.7,1.2l-0.9,0.4l-1.5,1.7l-1.4,0.4l-2,1.4
		l-0.8-0.5l-1.5,1l0.2,2.1l-2.2,2.8l0.5,3.4l-1.9,1.9l0.3,2.6l-1.3,2.5l0.4,1.3l-1,0.9l-1-0.1l-0.1,1.8L281,248l-0.9-1.2l0-1.6
		l-1.2-0.1l-2.2,2.2l-2.5,0.7l-1.5-1.4l-1.3,0.3l-0.1,0.5l-1.5-0.5l-1.8,0.5l-1.1-0.5l-3.1,0.4l-1.8,1.1l-0.8,1.1l-2.4,0.7l-0.6,1.9
		l-0.8,0.6l-1.4-0.5l-1-1l-1.1-0.1l-2.2,0.8l-5.8-2.3l-0.8,0.1l-0.7,1.2l-1.4,0.1l-1.9-1.3l-0.7,0.1l-0.3,0.7l-2.1,1.4l-1.3-1.4
		l-1.3,0.4l-2.1-1.9l0,0l0-2.6l1.1-0.5l0.4-1.6l2.2-1.6l1.8-2.8l-0.4-2.4l-1.4-2.1l0.8-0.5l0.3-2l1.1-1l-0.8-0.8l0.9-1l-2.4-1.6
		l-1.6,1.9l-1.3,0.4l-1.1-0.4l-0.3,0.5l-4,1.4l-1-0.9l-1.3,2.1l-1-1.6l-0.9-0.3l-0.6,1.8l0.8,2.3l-4.4-0.3l-3.4-0.9l-1-1l-2.3-0.8
		l-0.6,0.4l0.1,1.3l-0.4,0.3l-1.7-0.3l-0.6-3.1l1-1.3l0.8,0.2l1.7-2l-2.1-3.2l0.1-0.8l0.9,0l0.1-0.4l-1.4-1.7l0.7-1.9l1.2-1l1.7-0.6
		l-0.1-3.2l1.1-3l-0.6-2.2l-1.3-0.2l-0.7-1.2l-0.2-2.6l-1.5-4l-2.3-1.3l-0.5,0.2l-0.9-2.2l-2.1-1.9l0.2-1.1l-1.2-1.1l-1.6,0
		l-1.6,2.3l-1.9,1.3l0.3,0.6l-0.8,1l-0.7,0.1l0.1,1.3l-1.1,0.4l0.1,2.1l-0.7,0.8l-2.1,1.4l-0.3-0.8l-1.8-0.4l-0.7,0.9L189,207
		l-2.9-1l-1.7,2.6l-1.5,1.3l-0.5,1.3l-0.5-0.4l0.1-0.9l-0.9-1l-0.1-1.1l-1.1-1.7l-0.1-6.4l0.3-1.3l1-0.9l0.1-1.2l1.7-4.3l-0.8-1.1
		l-0.2-2.1l-1.5-0.1l2.5-3.7l-1.2,0.1l0.7-3.7l-0.7-1.3l-0.3,0.3l-1.1-0.5l-1.5,0l-0.9,0.4l-0.2,1.1l-1.2-0.2l0.4-2.1l1.5-1.4
		l-0.1-1l-0.8-1.1l-0.2-2l0,0l0.5-3.7l1.7-0.1l3.1,0.8l3.8,0l1.1-1l1.2-0.1l0.5-1.2l-0.1-1.7l0.8-1.3l1.4-0.9l2-3.9l1.7-1.7l2,1
		l1.5,0.4l1.1-0.3l2.1,1l0.2-1.3l-0.5-2.1l2.9-2.3l1.1-4.8l1.2-1l1.7,0.6l1.4-1l1.5-2.3l1.2-3.1l0.6-0.5L212.7,142.3z"/>
	<path id="SK-BL" class="st0" d="M12.3,175.8l3,0l0.2-1.7l3.3-0.4l3.4-1.4l0.3,0.5L24,173v-0.6l-1.1-1.3l0.1-0.6l3.9,2.4l2.1-1.2
		l0.7,1.4l1,0.3l7.4-1.7l2.6-1.4l2.5-0.4l0.5-1.8l2.5-1.5l6.8-10.1l1.5,1.3l1.5,0.6l1.4,2.7l0.2,1.8l-0.4,0.9l-1.7,1l-1.3,2.1
		l-2,0.2l-0.7,2.6l-3.9,2.7l-0.3,1l3.4,2.4l0.5,2l2.2,0.3l0.1,1.4l1.9,0.9l-0.2,0.7l-0.8,0.5l0.1,1l-0.6,1.3l-1.9,0.7l0,0.7
		l-1.1,1.4l0.2,0.7l1.5,1.8l2.8,0.1l1.7,1.9l3.3,0l-0.5,3.1l1.7,0.2l0,1.3l1.4,0.6l1.4,5l0.6,0.7l1.7-0.7l1.9,1.8l0.6,2.4l-1.6,4
		l-1.2,0.5l1.1,1.1l-0.6,1.6l1.1,0.1l0.6,1.3l1.8,1.4l0.5,0.2l1.1-0.9l1.3,1.5l-3.5,4.4l-1,3.7l0.6,0.6l1.4,0.1l3,1.4v1.1l-1.3,1.8
		l0.2,0.7l1.2,0.5l0.1,2.6l-0.4,0.6l-1.5,0.2l-0.3,0.8l-1.8,0.1l-1.1,1.2l-0.8,1.8l-2.9,1l-1.9-1.3l-1.7-0.1l0.1-2.3l-1.9-0.6
		l-1.3,1.1l0.5,1.7l1.1,0.6l-1.1,1.9l-1.1-0.3l-2.9,2.3l-0.7-0.2l-1.6,1l-1.2-0.8l-0.6,0.1l-0.2,0.8l0.5,0.6l-0.3,1.6l0.8,1.5
		l1.1,0.8h1l1.1-1.3l1.1,0.6l0.1,0.8L54,248l-0.5,3l-2.1,0.3l-1-1l-0.5,0.2l0.1,1.5l0.7,1.3l-2.7,1.4l-1.5,2.1l-1,0l0.1,1l-1.2,1.2
		l0,0l-0.5-1.5l-1.8,0.9l-2.6-0.5l-4.3,2l-2.1-2.3l-1.5-0.1l-1.5-1.5l-2.2,1.6l-2.3-1.7l1.9-2.2l-0.4-0.8l-1.6-0.7l1.9-1.7l-1.4-0.8
		l0.6-1.2l-0.6-0.8l2-1.4l-0.5-0.8l0.4-0.5l-1.7-1.1l-0.4-0.6l0.3-0.7l-0.8-0.1l-0.7-1l0.6-0.4l-1.3-3l-1.7,0.5l-1.3-0.2l-3.5-3.5
		l-2.1-1.4l0.1-2.6l-1.5-5.6l-1.5-2.2l1-4.4l-1.1-1l-2.5-0.4l-1.6-2.5l0.4-0.7l-0.5,0.3l-1.3-3l1-0.2l-0.6-0.8l0.9-1.8l-3.9-1.9
		l0.1-1.7l-2.2,0.1l-1-0.8l-0.2-2.9l-0.8-1.7l0.3-0.4l1.6,0l0-1.3l0.8-1.6l-0.6-0.4l-0.1-1.3l1.2-1.3l-1-2l-0.3-2.7l1.4-0.8
		l-0.4-0.8l0.4-1.1l0.9-0.4l0.5-1.1l2-1.7l-0.5-1l0.3-0.7l1-0.4l0.8,0.5l0.6-0.2l-0.5-2.6l0.9-0.2l-0.1-1l1.1-0.7l0.2,0.5l1.1,0
		l-0.2-1.1L12.3,175.8z"/>
	<path id="SK-KI" class="st0" d="M366.2,121.3l1.8,1.4l1.5-0.4l0.2-1.5l-0.5-0.6l0-1.1l0.8-1.1l0-4.1l1.4-0.9l0.2-0.5l-0.1-0.9
		l-1.1-0.8l-0.2-0.9l3.6-3.7l1.3-0.4l0.7-1l1.5-0.9l1.9-0.5l1.6-2l3.6,1.5l3.1,2.2l1.2,1.4l1.9,0.7l0.9,0.9l1.7,0l-3.4-4.4l0.5-1.4
		l2.5-2.3l0.7,0.4l1.2,2.3l2,1.7l0.3,1.1l2.5,1.3l1.3-0.8l2.4-0.2l3.6,5.8l1,0.2l2.1,1.6l-0.3-0.9l0.3-2.4l1.2-1l0-1.5l0.5-0.4
		l3.3-1.1l0.8,0.3l0.9,1.9l2.2-1.6l0.5,0.3l0.5,1.4l0.8,0.1l1.1-0.8l0.2-0.3l-1.2-1.7l0.1-1.3l-1-1.3l0.5-0.4l1.2,0.8l1.2,0.1
		l2.3,1.7l2.9-1.1l-0.2,0.8l-1.8,1.2l0.8,0.8l1.6,0l0.3,0.7l5.8-1.8l2.4,0.6l1.8,1.3l1.2,2.6l0.5,0.2l3.1-2.3l2.4,4l1.6,0.9l0.4,2.8
		l4.5,0.3l3,1.2l3,0.2l1.4-1.4l0.9,0.8l1.7,0.5l1,2.5l1.6,1.5l2-2.1l2.7,1.6l0.3-0.9l1.3,0l-0.1,1.8l2.2-0.9l0.5,1.8l-1.6,5.6
		l1.3,1.6l2.4,1.5l2-0.9l-0.1-1.8l1.5-1.3l0.9-0.3l1,0.6l0.9-0.8l3.1,0l0.3-1.2l1-1l-0.1-2.4l0.3-0.4l-0.7-1.7l0.5-0.5l1.7-0.4
		l2.1,1.9l0.3-3.5l0.6,0.9l0.6,2.7l2.2,0.4l0.6-0.3v-0.8l1.2-0.2l1.9-1.4l0.1,2.9l1.3,0.3l0.6,0.7l-1,1.2l0.2,1.4l1.2,1.6l1.6,0.8
		l0.9,1.8l-0.2,1.8l1.3,2.2l3.8,1l0.8,0.7l-0.1,1l2-0.1l2.3,1.3l4.2-1.3l1.1,1.7l1.7,1.4l2.4-0.4l4.2-2.3l1,0.1l0,0.8l0.6-2.5l2-0.6
		l2.1-1.7l0.2-1.7l-1.1-1.7l-0.7-10l0.4-2.2l1.1-0.8l1.7,0.2l1.1,2l0.6-0.3l0.6,0.4l0.8-0.5l1.9-0.2l5.4,2.1l2.8,1.9l1.9,3.1
		l3.7,0.4l0.8,1.4l3.5,0l4.4-1l6.2,0.1l0.5-0.8l-0.3-5.4l0.8-0.9l2-0.8l1-2.2l3.1-3.1l3.4,0.4l1.2,0.8l1,4.3l1,1.5l0.3,2.4l5.1-0.2
		l2.2-0.9l1.7,0.9l3.5,0.2l0.7,0.5l0,0l-0.9,4.8l0.9,2l0.3,3.6l-0.8,0.9l-0.6,1.7l-2.7,2.8l-0.5,2.6l1.9,1.5l0,2.1l-1.1,1.2
		l-1.2,5.9l-3.9,1.3l-2.6,2.6l-3,2.1L578,160l-1.5,1.5l-1.7,0l-1.5,1.9h-1.2l-0.1,1l-0.7,0.1l-2.1,4.7l-0.8,8.8l-2,13.7l0.2,3.8
		l0.5,1.2l1,0l-0.4,1.3l-2,0.7l0.5,1.7h-1.2l-0.4,0.5l-0.9-0.3l-1.2,0.6l-0.5-0.9l-1,1.5l-0.3-1.5l-0.8-0.8l-0.3,0.8l-1.4-0.1
		l-0.4,0.8l-3-2.4l-1.3,1.3l-2.9,0.8l-0.4,0.5l-0.2-0.6l-3.8,0.2l-1.6,1.2l-0.6-0.1l0.5,0.7l-0.5,0.8l-1-0.2l-1-0.9l-1,0.6l-0.3-0.8
		l0,1.2l-0.5-0.1l0.2-0.8l-0.5-0.3l-0.6,0.8l0.5,1.1l-0.5,0.2l0-0.8l-0.4-0.1l-0.4,1l-0.8-0.3l-0.3,0.7l-0.5-0.3l-0.3-1.5l-2,0
		l-0.4,0.5l-0.1,4.2l-1.1,0.6l-0.7,0l0.1-0.7l-1.5-0.2l-0.5-0.7l-3.5,0.2l-0.9-0.9l-3.4-0.6l-1.5-0.9l0.2-1.8l-0.8,0L520,202
		l0.6-1.1l-0.5-0.9l-2.2-1.3l-1.2,0.3l-1-1.3l-0.1-3.3l-0.3,0.1l-1.7-4.9l-0.8-0.4l-0.7-1.3l0.3-0.6l-1-1.3l0.3-0.8l-0.4-0.2
		l0.2-2.8l-0.3-0.9l-0.5,0.1l-0.2-2l-0.9,0.4l-1.3-1l-0.8,0.4l-0.7,1.3l-1.3-0.2l-0.6-1l-0.8,0.6l-1.2,0l-0.3-1l-1.5-1.3l-1.2-2.7
		l0-1.7l-0.9-0.3l-0.1-0.6h-0.6l-0.1-0.8l-1.3,0.3l-0.6-1l-0.7,0.1l-1.4-1.4l-1.3-0.3l-1.1-1.7l-1.1,0.2l-0.7,0.8l-0.2,2.7l-0.6,0.6
		l-1.7-0.8l-2.3,0.8l-3.1-0.3l-2.9,0.4l-0.1-0.5l-0.5,0.8l1.1,0.3l-1.3,0.5l0.8,0.8l-0.5,1.2l-0.7-0.1l0.6,1.2l-1.3,0.8l0.1,0.7
		l-1,0.1l-2.7-1l-0.5,0.4l-3-2.2l-0.7,0.1l-0.1,0.8l-1.2-0.5l-0.5,0.9l-0.8-0.2l0,1l-1.4,0.6l-0.3-0.3l-0.1,0.5l-0.5-0.3l-0.8,1
		l-0.8-0.7l-2.4,1l-1.9,3.6l-1.2,0.3l-1.2-0.1l-1.1-0.9l-0.1-2l-0.6-1l-1.9-0.6l-1.1-0.9l-1.4,0.7l0-0.8l-0.8,0.3l-1.2-0.3l-0.8-0.7
		l-0.4,0.4l-1-0.5l-2.3,0.9l-1.2,1.4l-0.8-0.9l-0.9,0.5l-0.9-0.4l-0.1-1.7l-1.5-0.3l-0.1-1.1L438,175l-0.7-2.2l-1-0.9l-4.1,1.1
		l-1.4-0.1l-1.5-2.1l-0.5,0.1v-2.2l-0.9,0.3l0.7-1.3l-4.3,1.4l-7.4,0.8l-0.5,0.7l-0.6-0.6l-1.7,0l-3.1,1.5l-2.8,0.1l-1.1,1.3
		l-0.4-0.4l-0.7,0.7l-1.4,0.3l-0.7,1l-1.5,0l-1.2,0.6l-0.3,0.7l-4.1-1.6l-1.1,2.6l-1.1-0.4l-0.7-1l-1.2,0.4l-0.8,0.9l0.1,1.5
		l0.8,0.9l-0.4,1.1l0.1,2.8l-1.4,0.3l-1.1,2.3l-2.1,1.4l0,0l0-0.7l-0.9-0.8l-1.7,0.9l-1.6,0l-0.7-2.1l-1.2,0.4l-1.5,2.4l-1,0.7
		l-2.2,0.7l-3.6,0.1l0.3-0.6l-0.5-0.5l0-1.1l-0.6,0.2l-0.8-0.5l-0.3,0.5l-0.5-0.8l0.2-1.9l-0.9-1.4l0.5-2.9l1.4-1.2l0.9-1.6l0-1.8
		l2.3-4.5l0.6-3.2l-1.4-0.2l-0.7-1.5l-2.3,0.5l-2-1l0,0l-0.1-0.6l0.7-0.8l0,0l-0.5-1l-0.4-3.4l1-1.9l-1.3-1.1l-1.5-3.4l-1.3-1.2
		l-1.1-2.3l-4.4-3.8l-2.1,0.3l-0.5-1.2l0.3-2l-0.8-0.3l-0.3-2.1l0.1-1l2.5-1.6l-0.6-2.6l-0.8-0.7l0.9-0.9l-0.2-3.7l4.4-4.1l1.1-3.9
		L366.2,121.3z"/>
	<path id="SK-NI" class="st0" d="M122.2,162.4l1.5-0.5l0.5-1l0.8,0.2l1.2-1l0.3-1.2l-0.1-2.5l-0.7-0.6l-0.8-3l-0.8-0.7l-0.5-3.5
		l1.4-1.5l1.3-0.1l1.2,1.5l5-0.1l1.9,1.1l1.5-0.5l3.6,3.2l1.4,4.3l1.7,1.6l1.4-0.8l1.6,0.9l1.1-0.3l1.3,0.7l1.4,4l1.1,1.7l-0.3,1.9
		l-2.4,2.3l1.6,1.3l-0.8,1l0,1l0.4,0.5l3.1,0l1.2,0.9l2,3.4l1.5,1.7l0.5,2.6l0.7,0.9l3.2,1l0.9-0.5l0.3-1.2l0.3,1.3l1.4,1.3l0.4-1.6
		l2-1.1l3.2-3.3l2.9-1.3l2.9-2.7l2-0.1l0,0l0.2,2l0.8,1.1l0.1,1l-1.5,1.4l-0.4,2.1l1.2,0.2l0.2-1.1l0.9-0.4l1.5,0l1.1,0.5l0.3-0.3
		l0.7,1.3l-0.7,3.7l1.2-0.1l-2.5,3.7l1.5,0.1l0.2,2.1l0.8,1.1l-1.7,4.3l-0.1,1.2l-1,0.9l-0.3,1.3l0.1,6.4l1.1,1.7l0.1,1.1l0.9,1
		l-0.1,0.9l0.5,0.4l0.5-1.3l1.5-1.3l1.7-2.6l2.9,1l2.7-1.4l0.7-0.9l1.8,0.4l0.3,0.8l2.1-1.4l0.7-0.8l-0.1-2.1l1.1-0.4l-0.1-1.3
		l0.7-0.1l0.8-1l-0.3-0.6l1.9-1.3l1.6-2.3l1.6,0l1.2,1.1l-0.2,1.1l2.1,1.9l0.9,2.2l0.5-0.2l2.3,1.3l1.5,4l0.2,2.6l0.7,1.2l1.3,0.2
		l0.6,2.2l-1.1,3l0.1,3.2l-1.7,0.6l-1.2,1l-0.7,1.9l1.4,1.7l-0.1,0.4l-0.9,0l-0.1,0.8l2.1,3.2l-1.7,2l-0.8-0.2l-1,1.3l0.6,3.1
		l1.7,0.3l0.4-0.3l-0.1-1.3l0.6-0.4l2.3,0.8l1,1l3.4,0.9l4.4,0.3l-0.8-2.3l0.6-1.8l0.9,0.3l1,1.6l1.3-2.1l1,0.9l4-1.4l0.3-0.5
		l1.1,0.4l1.3-0.4l1.6-1.9l2.4,1.6l-0.9,1l0.8,0.8l-1.1,1l-0.3,2l-0.8,0.5l1.4,2.1l0.4,2.4l-1.8,2.8l-2.2,1.6l-0.4,1.6l-1.1,0.5
		l0,2.6l0,0l-0.5,0.2l-0.2,0.9l-1,0.1l-1.7,2.1l-4.9-0.5l-3.1,1.1l-1.7-0.5l-0.4-0.6l-0.6,1l0.2,0.5l-2,0l-1,0.5l-1.2-0.8l-1.3,0.8
		l-0.9,1.5l0.5,0.3l0.1,0.8l-1.2,1.4l0.4,2.3l-0.5,2.3l-0.3-0.5l-0.5,0.7l0.5,0.2l-1.3,1l-1.9-0.4l-0.8,0.4l-0.3-0.5l-0.6,0.5
		l0.4,0.3l-0.9,0.4l-0.5,0.9l0.4,0.9l1.1,0.7l0.6,1.8l-1,0.1l0.7,3.1l-1.8,2l0.8,1.7l-0.5,0.3l0.4,0.5l-0.5,1l0.4,2l-0.4,0.2
		l0.2,2.2l3.1,0.7l0.8,1.1l2.4,1.2l0.9,2.4l2.1,1.2l-0.2,1.6l-5.9-0.9l-5.9,1.6l-1.3,3.9l-4.7,3.3l-1.9,0.8l-5.1,0.8l-5.3-1.3
		l-2.8,0.1l-2.5,1.5l-2.3,0.5l-0.7-0.1l-1.6-1.3l-2.3-0.6l-3.8,1.9l-2.8,0.4l-5.4,2.1l-5.1,1l-6.9-1.7l-5.7,0.1l-3.6-1.2l-6.9-1.3
		l-4.7,0l-2.9,1.6l-3.3-1.8l-2.7,2.1l-3.6,0.2l-1.6,0.6l-4.1-1.1l-1.4,0.7l-3.8-0.1l-2.6,0.6l-2.3-1.5l-5.7-1.3l-1.8-2l0,0l1.9-1.8
		l1.1-4.7l1.9,0l0.4,0.7l1.2,0l0.7,0.6l0.9-1.9l2.9-1.9l0.4-1.3l-0.5-3l1.2-2.3l2.4-0.8l1.8-2.8l3-1.8l1.4-1.7l-2.5-2.5l1.2-2
		l-0.7-4l0.8-4l-1.3-2.4l0.3-2.1l-0.4-1l1.6-1.2l-0.5-1l0.1-1.5l-0.8-1l-1.4-0.1l-1.8-1.2l1.2-1.5l-0.7-1.2l-2.7,2.1l-1.1-0.2
		l-0.5-2.2l1.3-3.1l-0.2-2.1l-2.9-3.4l-4-2.5l2.5-1.9l1.4,0l0.9,1.3l0.9,0l1.4-1.8l-1.9-3.7l2,0.3l1.3-0.3l1.2,1.1l0.5-1.1l2.4-1.1
		l1.1-1.2l0.3-1.8l-0.4-1.3l-2.9-0.9l-1.2-2l0.3-1.1l1,0.6l1.2-0.8l-0.1-1.1l-0.6-0.6l1.7-2.7l-0.6-1.4l-2.3-0.2l-0.7-1.5l1.5-1.2
		l0.3-4.2l1.2-0.9l-0.5-2.1l1.6-1.3l-0.4-0.7l1-0.5l0.4-1.3l2.6-4l1.7-4l-0.1-0.8l1.1-1.8l1.6,0l-0.3-1l1.3-1.9l-0.4-1.1l-2.6-1.8
		l-3.1-3.8l-1-0.8l-3.5-0.8l-0.4-0.7l-0.8,0l-0.1-1l1.9-1.5l1-5.2l1.9-2.3l0.6-2.5l2.1,0.8l0.8,0.8l3-0.2l-0.3-1.1l1.3-0.1l1.3-1.2
		L122.2,162.4z"/>
	<path id="SK-PV" class="st0" d="M477.8,27.5l3-0.5l1.3,0.2l0.5,0.8l1.6,0.8l0.6,1.4l1.3-0.4l2,0.2l0.4,1.1l2.9,2.3l1.4,0l1.2-0.6
		l1.8,0.3l1.4-2.3l0.5-0.2l2.8,1.9L501,32l-0.4-0.9l1.3-1.5l2.2,0.3l1.5-1.3l1,0.9l1.7,0.4l0.5-0.5l0.8,0.2l1.3-1.4l1.9-0.6l1.2,2.8
		l1.6,1.2l0,1.1l2.5,1l1.9-1.3l2.3,1.1l0.5,2.3l1,0l0.8,1.2l2.2,1.3l0.5,2.9l1,1.5l1.3,0.4l-0.1-2.3l0.9-1.7l1.7-0.6l1.4-1.3
		l1.7-0.1l0.8,0.9l0,1.2l1.2,1.5l0.6,0l0.8-0.7l1.2,0.4l1.1,2.3l1,1.1l0.4-0.5l1.2,0l1.5,1.2l2.6-0.6l0.8,0.3l2.4,6.1l1.7,2.1
		l3.4,2.8l-0.1,2.7l1.2,1.2l-1,4.9l1.7,1.4l6,2.1l4.1,0.7l0.2,1.3l3.7,1.7l1.1,1.1l0.9-0.3l1.3-1.3l1.5,0.2l0.8,0.7l0.4,1.3
		l-0.9,1.8l0,1.1l2.4,0.1l7.5,2.7l1.6-1.7l3.6,0.3l1.2,2.1l1.1,0.5l0.2,1.4l3.4,3.3l0.6,0.1l1.7-0.9l1.4,0l3.9,2.8l0.6,0.1l1.4-1.1
		l3.2-0.4l2.5,1.4l-1.3,1.4l-0.2,8l-1.4,1.2l0.9,2.3l-2.6,1.6l-2.1-0.5l-2.5,1.2l-0.5,2.6l-0.9,0.6l-4.4,7l0.7,1.4l-0.7,1.2
		l-0.4,4.5l-2.5,1.5l-1.3,1.9l0,0l-0.7-0.5l-3.5-0.2l-1.7-0.9l-2.2,0.9l-5.1,0.2l-0.3-2.4l-1-1.5l-1-4.3l-1.2-0.8l-3.4-0.4l-3.1,3.1
		l-1,2.2l-2,0.8l-0.8,0.9l0.3,5.4l-0.5,0.8l-6.2-0.1l-4.4,1l-3.5,0l-0.8-1.4l-3.7-0.4l-1.9-3.1l-2.8-1.9l-5.4-2.1l-1.9,0.2l-0.8,0.5
		l-0.6-0.4l-0.6,0.3l-1.1-2l-1.7-0.2l-1.1,0.8L529,119l0.7,10l1.1,1.7l-0.2,1.7l-2.1,1.7l-2,0.6l-0.6,2.5l0-0.8l-1-0.1l-4.2,2.3
		l-2.4,0.4l-1.7-1.4l-1.1-1.7l-4.2,1.3l-2.3-1.3l-2,0.1l0.1-1l-0.8-0.7l-3.8-1l-1.3-2.2l0.2-1.8l-0.9-1.8l-1.6-0.8l-1.2-1.6
		l-0.2-1.4l1-1.2l-0.6-0.7l-1.3-0.3l-0.1-2.9l-1.9,1.4l-1.2,0.2v0.8l-0.6,0.3l-2.2-0.4l-0.6-2.7l-0.6-0.9l-0.3,3.5l-2.1-1.9
		l-1.7,0.4l-0.5,0.5l0.7,1.7l-0.3,0.4l0.1,2.4l-1,1l-0.3,1.2l-3.1,0l-0.9,0.8l-1-0.6l-0.9,0.3l-1.5,1.3l0.1,1.8l-2,0.9l-2.4-1.5
		l-1.3-1.6l1.6-5.6l-0.5-1.8l-2.2,0.9l0.1-1.8l-1.3,0l-0.3,0.9l-2.7-1.6l-2,2.1l-1.6-1.5l-1-2.5l-1.7-0.5l-0.9-0.8l-1.4,1.4l-3-0.2
		l-3-1.2l-4.5-0.3l-0.4-2.8L445,112l-2.4-4l-3.1,2.3l-0.5-0.2l-1.2-2.6l-1.8-1.3l-2.4-0.6l-5.8,1.8l-0.3-0.7l-1.6,0l-0.8-0.8
		l1.8-1.2l0.2-0.8l-2.9,1.1l-2.3-1.7l-1.2-0.1l-1.2-0.8l-0.5,0.4l1,1.3l-0.1,1.3l1.2,1.7l-0.2,0.3l-1.1,0.8l-0.8-0.1l-0.5-1.4
		l-0.5-0.3l-2.2,1.6l-0.9-1.9l-0.8-0.3l-3.3,1.1l-0.5,0.4l0,1.5l-1.2,1l-0.3,2.4l0.3,0.9l-2.1-1.6l-1-0.2l-3.6-5.8l-2.4,0.2
		l-1.3,0.8l-2.5-1.3l-0.3-1.1l-2-1.7l-1.2-2.3l-0.7-0.4l-2.5,2.3l-0.5,1.4l3.4,4.4l-1.7,0l-0.9-0.9l-1.9-0.7l-1.2-1.4l-3.1-2.2
		l-3.6-1.5l-1.6,2l-1.9,0.5l-1.5,0.9l-0.7,1l-1.3,0.4l-3.6,3.7l0.2,0.9l1.1,0.8l0.1,0.9l-0.2,0.5l-1.4,0.9l0,4.1l-0.8,1.1l0,1.1
		l0.5,0.6l-0.2,1.5l-1.5,0.4l-1.8-1.4l0,0l-1.5-0.5l-2.8-3.1l-1.3-0.4l-1.5,0.2l-2.2-2.1l-1.5,2.6l-1.9,1.3l-8.9-1.3l-1.2-1.5
		l-5.3-0.5l0,0l0.4-1.1l3.3-0.6l2.3-2l-0.4-0.4l-1.8-0.2l-1.6-4.6l0.5-1.4l-1.5-1l-1.1-2.8l-3.6-2.6l0.3-0.9l1.9,0.6l3.3-1.4l0-3.1
		l1.1-2.8l-0.2-2.7l1.5-3.9l0.1-2.2l-1.4-0.9l-1.3,0.8l-2.6-0.5l-1.2,0.2l-1-1.9l-0.1,1.2l-0.6,0.3l-1.7-2.6l-1.7,0.1l-0.3-1.2
		l-2.3,0.9l-0.6-0.2l0.9-2.3l-0.3-0.5l0.4-1.2l-3.2-5l-0.6-2l0,0l0.4-0.9l2.7-2L328,63l2.1-0.9l2.4,0.2l4.3,0.5l2.4,2.1l-0.1,1
		l1.4,1.7l1.9,0.8l3.4,2.8l1.7,0l0.1-4.2l0.8-1.9l0.8-0.7l-0.6-2.4l0.9-1.1l0.2-2l2.1-3l0.4-3.5l2-3.3l0.5,0l0.9,1.8l1.6-1.5
		l-0.7-1.5l0.3-0.6l1.3-0.1l1-2.2l1.9-0.6l1.1-1.2l1,1.1l1.2-0.8L367,44l0.5-0.7l0.8-0.1l1.5,0.2l1.3,1h0.8l0.7-0.8l0.2-4.7l0.8-2
		l-1.7,0.1l0.8-2l1.4-0.3l2.8,0.8l1.2-1.5l0.7,0.8l0.1,1.7l1.2,0.2l2-0.8l0.2-1.4l0.5-0.5l1.1,0.6l0.5,1.1l0.4-1.7l-0.8-0.2l0.2-1.5
		l1.7,0.9l0.4-0.2l-0.4-0.4l2.7-0.1l2.4,1.6l1.2,0.3l0.5,1.8l1.3,0.1l2.9,1.2l1,1l1.8,0.4l0.6-1l1.1,0.2l1.1-1.1l0.3-1.4l1.1-1.4
		l0.4-2.1l3.4,2.8l1.6-0.6l3.5-2.7l1.8,0.3l1.4,0.8l1.5-0.3l0.6,0.8l-0.3,1.3l1.5,0.7l-1,1.3l1.3,1.2l-0.1,2.1l2.7-0.6l0.3,0.5
		l-0.4,1.5l1.8-0.2l1.1,0.8l-0.4,0.7l-0.7-1l0.3,0.8l-0.5,1.8l1.7-0.6l1.4,2.1l1.1,0l1.9-2.1l1-0.1l2.1,3.1l-1,1.4l1.3,0l0.5-0.8
		l1.4-0.3l0.6,1l-0.3,0.8l0.6,1.2l1.9,1.7l3.5-1.8l3,0.1l0.6-0.8l-0.9-2.4l2-1l0.5-2l0.7-0.2l2.6-2.8l0.6-0.1l0.9,0.6l1.1-0.5
		L453,42l0.6-0.7l1.4-0.2l1.2-1.7l-3.7-3.2l0-1l-1.7-0.6l-0.6-1.9l0.4-0.7l1.3-0.1l3.4-1.3l1.7,1l0.7-1.8l0.6-0.1l2.8,1.4l0.5,1.1
		l0.8,0.2l1.6,1.6l0.1,1.1l1.3,0.1l0.9-0.5l0.8,0.4l2-2.3l-0.4-1.5l1-1.9l0.8,0.4l2.6-2.1l0.6-2l0.8-0.1L477.8,27.5z"/>
	<path id="SK-TA" class="st0" d="M39,121.3l5.2,1.2l1.4,1.1l1.9,0l0.8,1.2l2.3,1.7l1.7-0.5l0.6,1.4l3,2.3l0.9,1.3l1.5-0.9l2.1,0.8
		l0,0l-0.8,3.4l-3.8,2l-0.1,1l1.7,1.3l1.1-0.5l0.6,0.4l3.6-2.8l0.5,1.3l-0.2,0.7l2.1,1.2l0.6-0.4l0.7,0.9l1.2,0.1l1.3,2.4l1.4,0.5
		l0.4,1.4l-0.3,1.7l-1.5,0.5l-1,2.9l0.6,1.2l0,1.7l1,0.2l0.9,3.5l3.5,6.3l0.7-0.8l1.1,0.5l0.3-1.1l1-0.4l1.4-1.7l1.9,0.9l4.5-0.9
		l0.3-0.2l-1-1.7l0.4-1.4l0.8,0l0,0.7l0.6,0.4l1.8,0.1l-0.1-0.9l2.1-1.3l0.5,0.2l1.5-1.4l0.8,0.2l0.8-1.1l2.3,1.8l2.1,3.2l4.4,2.1
		l1.8-0.3l0.4,0.6l0.6-0.5l1.3,0.1l0.2-2.3l1.6,0.2l0.4,0.1l-0.2,1.5l0.7,1.5l0.5,0l0.3-0.9l-0.1,1l0.3,0l0.5-1l1.1,1.5l0.6-0.3
		l3.3,1.2l3.6,0.3l1.6,1.4l2-0.7l0,0l-0.2,3l-1.3,1.2l-1.3,0.1l0.3,1.1l-3,0.2l-0.8-0.8l-2.1-0.8l-0.6,2.5l-1.9,2.3l-1,5.2l-1.9,1.5
		l0.1,1l0.8,0l0.4,0.7l3.5,0.8l1,0.8l3.1,3.8l2.6,1.8l0.4,1.1l-1.3,1.9l0.3,1l-1.6,0l-1.1,1.8l0.1,0.8l-1.7,4l-2.6,4l-0.4,1.3
		l-1,0.5l0.4,0.7l-1.6,1.3l0.5,2.1l-1.2,0.9l-0.3,4.2l-1.5,1.2l0.7,1.5l2.3,0.2l0.6,1.4l-1.7,2.7l0.6,0.6l0.1,1.1l-1.2,0.8l-1-0.6
		l-0.3,1.1l1.2,2l2.9,0.9l0.4,1.3l-0.3,1.8l-1.1,1.2l-2.4,1.1l-0.5,1.1l-1.2-1.1l-1.3,0.3l-2-0.3l1.9,3.7l-1.4,1.8l-0.9,0l-0.9-1.3
		l-1.4,0l-2.5,1.9l4,2.5l2.9,3.4l0.2,2.1l-1.3,3.1l0.5,2.2l1.1,0.2l2.7-2.1l0.7,1.2l-1.2,1.5l1.8,1.2l1.4,0.1l0.8,1l-0.1,1.5l0.5,1
		l-1.6,1.2l0.4,1l-0.3,2.1l1.3,2.4l-0.8,4l0.7,4l-1.2,2l2.5,2.5l-1.4,1.7l-3,1.8l-1.8,2.8l-2.4,0.8l-1.2,2.3l0.5,3l-0.4,1.3
		l-2.9,1.9l-0.9,1.9l-0.7-0.6l-1.2,0l-0.4-0.7l-1.9,0l-1.1,4.7l-1.9,1.8l0,0l-1.3-1.5l-5.2-3.5l-2.8-3.4l-3.7,1.1l-1.1-0.4l-1.8-3.2
		l-0.6-2.2l-1.9-2.3l-2.7-0.2l-3-2l-1.6-0.5l-3.1-6.7l-3.5-4l-1.7-1.1l-4.8-5.7l-1.1-0.4l-5.7,0.1l-1.8-0.8l-0.6-2l0,0l1.2-1.2
		l-0.1-1l1,0l1.5-2.1l2.7-1.4l-0.7-1.3l-0.1-1.5l0.5-0.2l1,1l2.1-0.3l0.5-3l1.5-0.3l-0.1-0.8l-1.1-0.6l-1.1,1.3h-1l-1.1-0.8
		l-0.8-1.5l0.3-1.6l-0.5-0.6l0.2-0.8l0.6-0.1l1.2,0.8l1.6-1l0.7,0.2l2.9-2.3l1.1,0.3l1.1-1.9l-1.1-0.6l-0.5-1.7l1.3-1.1l1.9,0.6
		l-0.1,2.3l1.7,0.1l1.9,1.3l2.9-1l0.8-1.8l1.1-1.2l1.8-0.1l0.3-0.8l1.5-0.2l0.4-0.6l-0.1-2.6l-1.2-0.5l-0.2-0.7l1.3-1.8v-1.1l-3-1.4
		l-1.4-0.1l-0.6-0.6l1-3.7l3.5-4.4l-1.3-1.5l-1.1,0.9l-0.5-0.2l-1.8-1.4l-0.6-1.3l-1.1-0.1l0.6-1.6l-1.1-1.1l1.2-0.5l1.6-4l-0.6-2.4
		l-1.9-1.8l-1.7,0.7l-0.6-0.7l-1.4-5l-1.4-0.6l0-1.3l-1.7-0.2l0.5-3.1l-3.3,0l-1.7-1.9l-2.8-0.1l-1.5-1.8l-0.2-0.7l1.1-1.4l0-0.7
		l1.9-0.7l0.6-1.3l-0.1-1l0.8-0.5l0.2-0.7l-1.9-0.9l-0.1-1.4l-2.2-0.3l-0.5-2l-3.4-2.4l0.3-1l3.9-2.7l0.7-2.6l2-0.2l1.3-2.1l1.7-1
		l0.4-0.9l-0.2-1.8l-1.4-2.7l-1.5-0.6l-1.5-1.3l-6.8,10.1l-2.5,1.5l-0.5,1.8l-2.5,0.4l-2.6,1.4l-7.4,1.7l-1-0.3l-0.7-1.4l-2.1,1.2
		l-3.9-2.4l-0.1,0.6l1.1,1.3v0.6l-1.5-0.1l-0.3-0.5l-3.4,1.4l-3.3,0.4l-0.2,1.7l-3,0l0,0l0.3-0.5l-0.5-0.4l-0.1-0.7l0.9-0.5l-0.9-1
		l0.1-1.3l-0.9-1.5l0-0.3l0.7-0.1l-0.6-0.5l0.2-1.3l-0.5-2.8l0.7-0.7l0.1-2.1l1.5-0.9l1-2.6l0.7-0.4l-0.8-0.5l1.1-0.2l-0.6-0.7
		l0.1-2.7l4.3-4.3l-1.2-1.4l0.2-1l1.4-1.4l0.1-1.6l2.8-3.8l0.4-2l4.8-3.3l0.2-1.7l1.5-1.6l0-2.7l0.4-0.9l4.7-2.4l3.8-4.5l0.5-0.4
		L39,121.3z"/>
	<path id="SK-TC" class="st0" d="M159.6,49.2l0.8,0.4l2.4-0.6l2.1,0.1l-0.1,2.2l0.8,1.2l0.9,0.5l2.1,3.9l1.6,1.7l-0.1,1.7l1.6,1.7
		l0.3,1.2l-0.3,0.9l0.7,1l0.1,1.2l1.8,1.3l0.3,2.3l1.3,0.6l3.4,3.2l2,1.1l1.3,0.2l0.1,1.6l3.3,1.1l0.3,2.8l1.4,1.4l-0.8,1.8
		l-1.8,1.1l-0.9,1.4l3.3,1.1l1.6,2.5l-0.4,0.9l0.3,0.9l-0.8,1.2l0.5,1.3l-0.2,2.6l-1.2,0.7l-0.3,1.3l-1.9,2.3l-0.7,0.5l-3.2,0.5
		l-2.2,1.4l-0.1,1.1l-1.1,1.8l-1.2,0.1l-1.9,1.1l-0.6-0.1v1.1l1.4,1.5l5.2,0.5l1.5-1.4l2.2-0.5l0.3-1.4l1.2-1.8l1.4-0.4l-0.2,1.1
		l0.8,1.1l1.8-0.1l2.1-0.8l4.6,1.4l2.4-0.6l2.1,2l0.3,1l-0.8,1.8l-0.6-0.2l0,1l-1.1,1.8l1.7,2.4l-1.4,2.8l0.5,0.7l-0.3,4.6l2.3,1.2
		l1.2,1.4l1-0.1l1.1,0.8l0.2,1.3l0.6-0.1l0.9,1l1.3,0.2l-0.1,3.3l3.3,3.5l0.6,1.8l1,0.3l0.2,2.4l0,0l0,0.8l-0.6,0.5l-1.2,3.1
		l-1.5,2.3l-1.4,1l-1.7-0.6l-1.2,1l-1.1,4.8l-2.9,2.3l0.5,2.1l-0.2,1.3l-2.1-1l-1.1,0.3l-1.5-0.4l-2-1l-1.7,1.7l-2,3.9l-1.4,0.9
		l-0.8,1.3l0.1,1.7l-0.5,1.2l-1.2,0.1l-1.1,1l-3.8,0l-3.1-0.8l-1.7,0.1l-0.5,3.7l0,0l-2,0.1l-2.9,2.7l-2.9,1.3l-3.2,3.3l-2,1.1
		l-0.4,1.6l-1.4-1.3l-0.3-1.3l-0.3,1.2l-0.9,0.5l-3.2-1l-0.7-0.9l-0.5-2.6l-1.5-1.7l-2-3.4l-1.2-0.9l-3.1,0l-0.4-0.5l0-1l0.8-1
		l-1.6-1.3l2.4-2.3l0.3-1.9l-1.1-1.7l-1.4-4l-1.3-0.7l-1.1,0.3l-1.6-0.9l-1.4,0.8l-1.7-1.6l-1.4-4.3l-3.6-3.2l-1.5,0.5l-1.9-1.1
		l-5,0.1l-1.2-1.5l-1.3,0.1l-1.4,1.5l0.5,3.5l0.8,0.7l0.8,3l0.7,0.6l0.1,2.5l-0.3,1.2l-1.2,1l-0.8-0.2l-0.5,1l-1.5,0.5l0,0l-2,0.7
		l-1.6-1.4l-3.6-0.3l-3.3-1.2l-0.6,0.3l-1.1-1.5l-0.5,1l-0.3,0l0.1-1l-0.3,0.9l-0.5,0l-0.7-1.5l0.2-1.5l-0.4-0.1l-1.6-0.2l-0.2,2.3
		l-1.3-0.1l-0.6,0.5l-0.4-0.6l-1.8,0.3l-4.4-2.1l-2.1-3.2l-2.3-1.8l-0.8,1.1l-0.8-0.2l-1.5,1.4l-0.5-0.2l-2.1,1.3l0.1,0.9l-1.8-0.1
		l-0.6-0.4l0-0.7l-0.8,0l-0.4,1.4l1,1.7l-0.3,0.2l-4.5,0.9l-1.9-0.9l-1.4,1.7l-1,0.4l-0.3,1.1l-1.1-0.5l-0.7,0.8l-3.5-6.3l-0.9-3.5
		l-1-0.2l0-1.7l-0.6-1.2l1-2.9l1.5-0.5l0.3-1.7l-0.4-1.4l-1.4-0.5l-1.3-2.4l-1.2-0.1l-0.7-0.9l-0.6,0.4l-2.1-1.2l0.2-0.7l-0.5-1.3
		l-3.6,2.8l-0.6-0.4l-1.1,0.5l-1.7-1.3l0.1-1l3.8-2l0.8-3.4l0,0l2.1-2.1l1.2,0.2l0.7-2l1,0.3l1-1.4l2.7,0.9l3.9,3.9l1,0.4l1.5-0.8
		l1.1,0.3l1.5-1.2l3-0.2l0.8-2.2l2.1-0.3l0.5-1.3l1-0.9l3.6,0l2.1-1.1l1.9,0.2l1.6-2.1l2-1.5l2.2-3.6l2.4-1.7l0.3-1.6l7-0.5l2.1,0.8
		l1.7-0.9l1.6-4.9l0.3-3.6l1.1-2.1l0.1-2.6l1.3-1.4l1.1-0.7l4.3,0.2l1.4-0.8l3.9,0.6l4.9-2.4l3.1-3.6l-0.1-1.4l2-4.2l-0.5-3.5
		l0.4-0.6l0.7-0.1l-1.2-2.5l0.7-1.4v-1.4l1.9-1.7l-0.5-1.3v-2.9l1.6-2l0.4-2.2l0.6-0.6l0.1-1.9l-1-0.5l0.1-2.5l4.1-4l0-2.5l4.1-1.2
		l4.5-0.4l3.6-1.4l0.2-0.6L159.6,49.2z"/>
	<path id="SK-ZI" class="st0" d="M281.3,0.3l1,1.5l-0.6,1.4l0.8,1.2l2.2,1.2l1.4,0.1l0.7,1.1l1.2,0.4l-0.1,5.6l2.4,4.8l0.2,3
		l1.3,1.6l0.3,1.4l1.4,1.7l0.3,1.1l1.5-0.4l1.6,1.6l3-1.6l-0.3,2.5l1.2,1.1l-2,4.4l3.1,0.1l2.1,0.9l0.7-0.1l3.4,2.7l1.3-0.9l1.3-2.2
		l0.9-0.6l1.9-0.7l2.5,0.6l0.2,4.9l1.2,2.1l-0.2,2l-0.7,1.7l0.4,1.8l1,1.3l-1.4,4.2l0.2,0.6l1.4,0.4l1.3,2.8l-3.3,1.8l-0.3,2.5
		l-2.4,2.5l0.3,1.6l-0.8,1.9l0.8,1.2l1,0.3l0.9,1l1.1,0l1-1l1.3,1.2l1-0.5l1.1,0.8l3.5,0l0,0l0.6,2l3.2,5l-0.4,1.2l0.3,0.5l-0.9,2.3
		l0.6,0.2l2.3-0.9l0.3,1.2l1.7-0.1l1.7,2.6l0.6-0.3l0.1-1.2l1,1.9l1.2-0.2l2.6,0.5l1.3-0.8l1.4,0.9l-0.1,2.2l-1.5,3.9l0.2,2.7
		l-1.1,2.8l0,3.1l-3.3,1.4l-1.9-0.6l-0.3,0.9l3.6,2.6l1.1,2.8l1.5,1l-0.5,1.4l1.6,4.6l1.8,0.2l0.4,0.4l-2.3,2l-3.3,0.6l-0.4,1.1l0,0
		l-1.9-2l-2.5,1.4l-8.1-0.4l-4.8,0.7l-1.1-0.4l-0.6-0.8l-2.4-0.1l-2.3,1.5l-1.2,0l-1.8,1.1l-1.5-1.8l-4.8,1.8h-3l-3.1-2.5l-1.5-0.5
		l-2.8-2l-0.8-1l-2.2-0.8L290,110l-1.4-0.8l-1.5,1l-3.1-0.4l-3.6,1.9l-1.6,0.4h-6.7l-5.1,5.8l-2.1,4.5l-6.9,1.1l-0.2-0.6l1.6-1.4
		l-0.1-2.2l-0.6-1.6l-2-0.9l-3.7,1l-2,1.9l-1.4-0.5l-1.3,0.7l-1.1-0.4l-4.9,0.8L240,120l-0.7,0.3l-1.3-0.1l-0.9-0.9l-0.6,0l-1.9,0.8
		l-0.8,2.9l-1.4,1.7l-1.1,0.1l-0.7-0.4l-0.5,0.5l0.8,3.7l-0.9,1.6l0.1,1.4l0.5,1l2.4,2.1l-0.5,3.6l-1.6,1.3l-0.9,1.6l-2.8,0.4
		l-2.4-0.6l-1.4,1.1l-1-0.1l-1.1-1.1l-1.8-0.3l0.1-1.3l-0.7-0.1l-0.1-1.5l-0.8-0.2l-2,1l-1.3,1.8l-1.6,0.8l-0.4,0.9l0,0l-0.2-2.4
		l-1-0.3l-0.6-1.8l-3.3-3.5l0.1-3.3l-1.3-0.2l-0.9-1l-0.6,0.1l-0.2-1.3l-1.1-0.8l-1,0.1l-1.2-1.4l-2.3-1.2l0.3-4.6l-0.5-0.7l1.4-2.8
		l-1.7-2.4l1.1-1.8l0-1l0.6,0.2l0.8-1.8l-0.3-1l-2.1-2l-2.4,0.6l-4.6-1.4l-2.1,0.8l-1.8,0.1l-0.8-1.1l0.2-1.1l-1.4,0.4l-1.2,1.8
		l-0.3,1.4l-2.2,0.5l-1.5,1.4l-5.2-0.5l-1.4-1.5v-1.1l0.6,0.1l1.9-1.1l1.2-0.1l1.1-1.8l0.1-1.1l2.2-1.4l3.2-0.5l0.7-0.5l1.9-2.3
		l0.3-1.3l1.2-0.7l0.2-2.6l-0.5-1.3l0.8-1.2l-0.3-0.9l0.4-0.9l-1.6-2.5l-3.3-1.1l0.9-1.4l1.8-1.1l0.8-1.8l-1.4-1.4l-0.3-2.8
		l-3.3-1.1l-0.1-1.6l-1.3-0.2l-2-1.1l-3.4-3.2l-1.3-0.6l-0.3-2.3l-1.8-1.3l-0.1-1.2l-0.7-1l0.3-0.9l-0.3-1.2l-1.6-1.7l0.1-1.7
		l-1.6-1.7l-2.1-3.9l-0.9-0.5l-0.8-1.2l0.1-2.2l-2.1-0.1l-2.4,0.6l-0.8-0.4l0,0l4.2-1.3l1.4-1.2l1.2-2.4l1.5-0.8l-0.5-0.9l1.6-1.6
		l0.2-0.8l-1.2-4.3l0.7-0.6l1.6,1.2l1.2,0.2l1-0.3l0.7-1.3l2.3-1.2l0.1-1.6l0.7-1.3l0.9-0.6l0-0.9l1.2-0.2l0.3-1.1l1.6-0.9l0.3-1.2
		l0.8-0.2l1.6-1.6l-1.2-3l0.1-1l1.1-0.6l0.2-0.9l2.3-1.2l3.1-0.3l0.6,0.3l0,1.6l1.7,0.3l1.3-0.4l0.7,0.3l0.9-0.9l3.7-0.9l1.1,1.2
		l2.3-0.2l3.3,2h1.5l3-2.9l1.7-0.4l0.9-1l2.8-0.8l2.2,0.5l1.3-0.4l0.7,0.6l2.6,0.3l4.6-0.8l0.8,1l1.7,0.8l0.1,0.9l0.8-0.2l0.2,0.4
		l-1.1,3l0.7,1l-0.5,0.6l-0.4,3.1l1.4,0.5l0.7,2.3l0.9,1l-0.4,1.6l-1.7,1.5l0.4,1.9l0.7,0.9l2-0.6l1.3,0.6l2.7-0.1l1.2-1.1l-0.2-0.5
		l0.8-1.5l1.9,0.3l0.4-0.8l1.8,0.2l2,2l1.3,0.2l1-0.4l0.8-1l1.3,1l2.6-1.5l1.6,0.5l0.8-0.8l-0.6-0.7l0.1-1.4l-0.6-0.6v-0.8l2-2.4
		l1.4,0.4l0.7-1l0.3-1.4l-0.9-1.6l1.3-2.1l-0.5-0.8l0.8-0.7l0-2.6l2.7-2.5l0.3-0.9l1.2,0l1-0.6l1.5,0.4l1.3-0.6l0.8,0.3l0.2,0.8
		l4.5-1l0.6-1.1l-0.2-1.7l0.9-0.9l-0.2-1.5l3.1-1.2l0.8-1.1l0.1-1.5l0.6-0.5l3-0.8l-0.1-1.4l0.5-0.9l0.9,0.3L281.3,0.3z"/>
</g>
</svg>
